<svg xmlns="http://www.w3.org/2000/svg" xmlns:xlink="http://www.w3.org/1999/xlink" xmlns:xodm="http://www.corel.com/coreldraw/odm/2003" xml:space="preserve" version="1.1" style="shape-rendering:geometricPrecision; text-rendering:geometricPrecision; image-rendering:optimizeQuality; fill-rule:evenodd; clip-rule:evenodd" viewBox="-16003.37 781.34 22441.78 22447.76">
 <defs>
  <style type="text/css">
   <![CDATA[
    .fil0 {fill:#3C8A65}
    .fil2 {fill:#CAA42C}
    .fil1 {fill:#FEFEFE}
   ]]>
  </style>
 </defs>
 <g id="Layer_x0020_1">
  <metadata id="CorelCorpID_0Corel-Layer"/>
  <g id="_105553222877792">
   <path class="fil0" d="M-5857.03 16242.51l-18.71 -3215.4c280.41,127.84 766.01,765.36 988.73,1061.58 145.71,193.8 282.61,380.48 436.04,586.74 459.49,617.66 347.26,363.02 347.26,1602.36 0,691.81 -60.7,1532.54 65.57,2186.53 138.59,717.74 582.27,924.08 1368.73,928.77l12.42 413.5 -4674.41 -35.28c0,-645.32 -53.67,-204.16 759.34,-484.75 303.8,-104.85 508.82,-308.22 603.11,-632.41 125.87,-432.82 111.92,-1871.19 111.92,-2411.64zm3637.81 -2505.29c-114.18,-202.53 -338.86,-404.65 -437.77,-601.97 840.61,-83.66 1493.52,-199.86 1985.32,-685.8 508.32,-502.27 793.46,-936.86 748.18,-1964.39 -95.72,193.77 -48.59,500.76 -315.17,1022.05 -114.62,224.14 -418.37,676.5 -627.1,755.44 -360.16,-471.91 -344.76,-1191.29 24.47,-1747.36 291.75,-439.38 756.91,-721.61 778.47,-1468.31 660.78,485.69 1023.73,2209.06 62.64,3191.89 -326.47,333.85 -343.56,358.4 -712.75,591.07l-135.67 100.02c586.19,-88.21 1375.99,-648.74 1623.39,-939.1 37.61,-44.14 256.02,-300.1 277.47,-359.71 56.56,-157.16 -57.09,-343.88 -85.19,-507.32 -39.44,-229.31 -47.68,-1014.22 -16.94,-1251.64 58.94,131.94 67.49,331.62 155.27,446.62 176.04,230.63 653.78,567.18 211.98,1366.43 -349.19,631.7 -819,905.3 -1334.16,1265.33 1505.36,-526.52 1373.15,-1759.47 2484.46,-2053.5 436.27,-115.43 219.62,-246.94 516.98,-542.24 -133.67,529.8 -480.6,1078.26 -780.96,1335.6 -229.51,196.62 -424.87,137.65 -643.69,414.81 -913.83,1157.48 -2125.18,1519.05 -3779.23,1632.08zm4070.47 -2812.41c181.78,-1078.53 928.98,-1293.6 1007.57,-1403.05 53.98,-75.2 198.92,-486.85 207.04,-563.01 41.98,310.47 -166.05,1004.68 -291.12,1256.5 -168.05,338.38 -454.12,633.54 -923.49,709.56zm-867.9 -1901.65c55.47,72.53 214.65,353.68 254.19,387.36 109.73,93.48 216.46,61.84 403.48,302.81 188.55,242.94 306.05,794.76 69.09,1066.14 -620.15,-553.97 -533.07,-1240.84 -726.76,-1756.31zm1119.12 793.12c21.74,-497.49 49.7,-789.31 277.69,-1160.34 333.83,-543.3 382.44,2.52 428.02,-1018.96 164.4,263.58 255.83,1837.84 -705.71,2179.3zm-1295.55 -1675.26c172.86,61.77 171.66,231.02 318.23,324.71 145.94,93.3 282.23,72.73 455.65,213.46 307.72,249.72 422.61,483.59 386.76,1024.9 -621.47,-274.58 -888.26,-1014.63 -1160.64,-1563.07zm-323.56 -776.29c128.74,65.07 259.59,215.54 392.48,255.81 202.87,61.47 961.89,30.55 1043.96,1008.66 -845.02,-207.32 -1108.57,-944.07 -1436.44,-1264.47zm1818.18 -900.73c88.99,115.5 150.93,416.2 191.56,563.7 59.07,214.48 103.39,440.49 98.29,676.15 -9.24,427.06 -241.53,837.75 -515.5,971.18 -303.59,-888.25 235.52,-1476.28 266.21,-1580.8 57.94,-197.32 -41.68,-413.37 -40.56,-630.23zm-2308.12 207.75c198.53,52.02 271.45,172.76 477.35,174.63 221.01,2.02 357.67,-42.37 567.6,46.01 259.52,109.25 529.35,384.56 599.14,713.53 -783.55,-84.89 -1025.47,-413.89 -1540.19,-829.74l-103.9 -104.43zm-691.05 -707.87c168.65,43.78 342.3,167.1 473.01,189 177.5,29.74 336.57,-79.97 594.78,-46.58 344.06,44.5 666.03,313.02 757.07,584.21 -839.71,0 -780.02,-47.12 -1439.47,-458.23l-288.23 -169.69c-109.69,-79.44 -49.05,-27.6 -97.16,-98.71zm-10906.67 -516.38c781.48,-1.73 1613.9,16.82 2411.09,16.82 2591.51,0 6876.17,-513.38 7840.67,2267.76 549.16,1583.5 -136.67,3064.31 -1472.95,3798.51 -460,252.74 -853.53,328.65 -1341.12,534.94 732.77,577.68 1501.64,1631.12 2104.45,2409.87 1004.24,1297.34 1069.4,1383.94 2093.38,2422.27 171.1,173.5 595.64,479.39 886.11,630.59 394.84,205.54 747.97,231.92 1210.9,295.53l-9.43 340.24c-310.65,87.35 -813.76,89.99 -1149.69,89.99 -2348.61,0 -3365.52,-1374.58 -4560.76,-2990.79 -273.58,-369.94 -514.63,-702.33 -796.43,-1073.82 -141.52,-186.57 -275.74,-359.93 -416.94,-536.03l-432.15 -520.54c-285.02,-292.76 -643.41,-609.46 -1163.17,-740.93 -470.5,-119.01 -1290.65,-138.73 -1796.53,-93.07 0,1164.67 -39.96,2400.66 2.37,3556.4 72.69,1984.35 495.21,1697.88 1632.86,1956.96 52.37,119.77 30.88,174.24 30.88,371.25l-5061.88 0 -16.02 -388.58c1123.42,-49.51 1573.79,-284.41 1601.2,-1446.22 73.42,-3112.21 50.91,-5964.33 1.7,-9068.76 -19.65,-1240.24 -399.62,-1401.86 -1602.9,-1442.27l4.36 -390.12zm13146.32 -2.41c200.9,298.24 385.16,590.7 503.71,1005.85 124.74,436.84 38.8,998.17 -271.33,1147.91 -101.62,-363.56 -308.82,-692.39 -191.31,-1152.7 45.09,-176.61 173.34,-301.87 140.94,-487.19 -31.65,-180.97 -150.36,-329.39 -182.01,-513.87zm-2295.77 -481.9c793.83,-1.07 1435.27,369.67 1542.21,1080.89 -345.42,-30.41 -729.05,-255.79 -884.75,-415.75 -254.96,-261.93 -76.23,-311.43 -657.46,-665.14zm1303.22 -350.75c265.51,209.42 510.44,502.93 725.87,843.76 200.05,316.47 302.19,947.38 11.34,1208.72 -168.42,-182.39 -412.53,-715.46 -406.79,-1044.02 5.64,-322.74 162.98,-309.62 -40.24,-576.44 -115.13,-151.18 -198.79,-273.43 -290.18,-432.02zm-4655.95 688.92c-643.2,-78.49 -1117.28,-165.54 -1805.15,-165.54l-25.24 -53.03c-4.35,-10.91 -15.78,-182.19 -137.77,-358.08 -245.94,-354.62 -813.53,-387.35 -1229.15,-400.47l-1.63 -369.53 4922.37 0c695.6,0 1396.88,82.7 2036.7,265.47 483.3,138.06 445.84,173.39 713.04,451.49 157.09,163.5 420.73,417.61 378.08,725.47 -207.5,-118.35 -196.65,-261.05 -674.41,-429.07 -266.17,-93.6 -627.09,-177.48 -936.12,-177.48 -630.3,0 -457.96,-43.38 -946.91,-161.02 -636.14,-153.05 -1666.91,-122.83 -2289.21,18.03l-4.6 653.76zm-11896.89 6353.99c0,1135.14 32.74,1993.12 324.44,3063 315.83,1158.35 624.32,1936.85 1194.61,2933.83 472.32,825.7 1162.01,1676.98 1824.28,2339.45 136.07,136.11 202.45,194.55 351.27,319.16 72.84,60.98 108.39,112.75 178.3,174.56l568.25 455.04c433.15,346.95 991.24,690.57 1487.3,947.42l468.48 237.24c1398.99,597.62 1904.4,797.1 3472.29,1009l1316.38 95.05 1295.94 -80.21c2162.83,-264.58 4269.16,-1130.95 5927.12,-2541.47 413.42,-351.72 1028.68,-982.81 1394.94,-1392.65 109.65,-122.7 211.04,-262.59 314.18,-391.53 1479.93,-1850.09 2324,-4446.39 2324,-6850.31 0,-3328.56 -1516.45,-6121.27 -3184.55,-7789.35 -524.85,-524.85 -840.43,-833.21 -1472.93,-1279.36 -402.13,-283.66 -1247.8,-832.11 -1719.06,-1033.23 -1096.7,-468.06 -1929.85,-797.09 -3156.12,-972.32 -2907.07,-415.42 -5932.18,281.79 -8175.47,1940.58 -265.3,196.17 -508.85,365.73 -755.45,585.41l-723.17 652.98c-408.81,406.46 -879.6,1011.06 -1218.38,1463.33 -1202.13,1604.84 -2036.65,4161.47 -2036.65,6114.38z"/>
   <path class="fil1" d="M-8184.61 11705.33l-12.48 -5561.17c870.2,-231.18 2648.82,-140.63 3548.3,261.37 910.57,406.96 1570.47,1106.04 1613.96,2426.9 42.43,1288.56 -619.78,2158.37 -1512.45,2528.53 -1031.81,427.85 -2431.96,416.47 -3637.33,344.37zm5359.12 -174.74c1336.28,-734.2 2022.11,-2215.01 1472.95,-3798.51 -964.5,-2781.14 -5249.16,-2267.76 -7840.67,-2267.76 -797.19,0 -1629.61,-18.55 -2411.09,-16.82l-4.36 390.12c1203.28,40.41 1583.25,202.03 1602.9,1442.27 49.21,3104.43 71.72,5956.55 -1.7,9068.76 -27.41,1161.81 -477.78,1396.71 -1601.2,1446.22l16.02 388.58 5061.88 0c0,-197.01 21.49,-251.48 -30.88,-371.25 -1137.65,-259.08 -1560.17,27.39 -1632.86,-1956.96 -42.33,-1155.74 -2.37,-2391.73 -2.37,-3556.4 505.88,-45.66 1326.03,-25.94 1796.53,93.07 519.76,131.47 878.15,448.17 1163.17,740.93l432.15 520.54c141.2,176.1 275.42,349.46 416.94,536.03 281.8,371.49 522.85,703.88 796.43,1073.82 1195.24,1616.21 2212.15,2990.79 4560.76,2990.79 335.93,0 839.04,-2.64 1149.69,-89.99l9.43 -340.24c-462.93,-63.61 -816.06,-89.99 -1210.9,-295.53 -290.47,-151.2 -715.01,-457.09 -886.11,-630.59 -1023.98,-1038.33 -1089.14,-1124.93 -2093.38,-2422.27 -602.81,-778.75 -1371.68,-1832.19 -2104.45,-2409.87 487.59,-206.29 881.12,-282.2 1341.12,-534.94z"/>
   <path class="fil0" d="M-5884.68 11347.9l0 -4923.19c432.22,9.87 1027.14,204.76 1395.77,420.41 149.41,87.4 259.93,198.69 374.31,256.7l10.89 3459.67c0,458.03 -1271.48,768.39 -1780.97,786.41zm-2299.93 357.43c1205.37,72.1 2605.52,83.48 3637.33,-344.37 892.67,-370.16 1554.88,-1239.97 1512.45,-2528.53 -43.49,-1320.86 -703.39,-2019.94 -1613.96,-2426.9 -899.48,-402 -2678.1,-492.55 -3548.3,-261.37l12.48 5561.17z"/>
   <path class="fil1" d="M-5857.03 16242.51c0,540.45 13.95,1978.82 -111.92,2411.64 -94.29,324.19 -299.31,527.56 -603.11,632.41 -813.01,280.59 -759.34,-160.57 -759.34,484.75l4674.41 35.28 -12.42 -413.5c-786.46,-4.69 -1230.14,-211.03 -1368.73,-928.77 -126.27,-653.99 -65.57,-1494.72 -65.57,-2186.53 0,-1239.34 112.23,-984.7 -347.26,-1602.36 -153.43,-206.26 -290.33,-392.94 -436.04,-586.74 -222.72,-296.22 -708.32,-933.74 -988.73,-1061.58l18.71 3215.4z"/>
   <path class="fil1" d="M-5884.68 11347.9c509.49,-18.02 1780.97,-328.38 1780.97,-786.41l-10.89 -3459.67c-114.38,-58.01 -224.9,-169.3 -374.31,-256.7 -368.63,-215.65 -963.55,-410.54 -1395.77,-420.41l0 4923.19z"/>
   <path class="fil2" d="M-2219.22 13737.22c1654.05,-113.03 2865.4,-474.6 3779.23,-1632.08 218.82,-277.16 414.18,-218.19 643.69,-414.81 300.36,-257.34 647.29,-805.8 780.96,-1335.6 -297.36,295.3 -80.71,426.81 -516.98,542.24 -1111.31,294.03 -979.1,1526.98 -2484.46,2053.5 515.16,-360.03 984.97,-633.63 1334.16,-1265.33 441.8,-799.25 -35.94,-1135.8 -211.98,-1366.43 -87.78,-115 -96.33,-314.68 -155.27,-446.62 -30.74,237.42 -22.5,1022.33 16.94,1251.64 28.1,163.44 141.75,350.16 85.19,507.32 -21.45,59.61 -239.86,315.57 -277.47,359.71 -247.4,290.36 -1037.2,850.89 -1623.39,939.1l135.67 -100.02c369.19,-232.67 386.28,-257.22 712.75,-591.07 961.09,-982.83 598.14,-2706.2 -62.64,-3191.89 -21.56,746.7 -486.72,1028.93 -778.47,1468.31 -369.23,556.07 -384.63,1275.45 -24.47,1747.36 208.73,-78.94 512.48,-531.3 627.1,-755.44 266.58,-521.29 219.45,-828.28 315.17,-1022.05 45.28,1027.53 -239.86,1462.12 -748.18,1964.39 -491.8,485.94 -1144.71,602.14 -1985.32,685.8 98.91,197.32 323.59,399.44 437.77,601.97z"/>
   <path class="fil1" d="M-7303.79 4324.24c415.62,13.12 983.21,45.85 1229.15,400.47 121.99,175.89 133.42,347.17 137.77,358.08l25.24 53.03c687.87,0 1161.95,87.05 1805.15,165.54l4.6 -653.76c622.3,-140.86 1653.07,-171.08 2289.21,-18.03 488.95,117.64 316.61,161.02 946.91,161.02 309.03,0 669.95,83.88 936.12,177.48 477.76,168.02 466.91,310.72 674.41,429.07 42.65,-307.86 -220.99,-561.97 -378.08,-725.47 -267.2,-278.1 -229.74,-313.43 -713.04,-451.49 -639.82,-182.77 -1341.1,-265.47 -2036.7,-265.47l-4922.37 0 1.63 369.53z"/>
   <path class="fil2" d="M1851.25 10924.81c469.37,-76.02 755.44,-371.18 923.49,-709.56 125.07,-251.82 333.1,-946.03 291.12,-1256.5 -8.12,76.16 -153.06,487.81 -207.04,563.01 -78.59,109.45 -825.79,324.52 -1007.57,1403.05z"/>
   <path class="fil2" d="M2102.47 9816.28c961.54,-341.46 870.11,-1915.72 705.71,-2179.3 -45.58,1021.48 -94.19,475.66 -428.02,1018.96 -227.99,371.03 -255.95,662.85 -277.69,1160.34z"/>
   <path class="fil2" d="M2591.39 7703.85c5.1,-235.66 -39.22,-461.67 -98.29,-676.15 -40.63,-147.5 -102.57,-448.2 -191.56,-563.7 -1.12,216.86 98.5,432.91 40.56,630.23 -30.69,104.52 -569.8,692.55 -266.21,1580.8 273.97,-133.43 506.26,-544.12 515.5,-971.18z"/>
   <path class="fil2" d="M2045.73 6450.94c-118.55,-415.15 -302.81,-707.61 -503.71,-1005.85 31.65,184.48 150.36,332.9 182.01,513.87 32.4,185.32 -95.85,310.58 -140.94,487.19 -117.51,460.31 89.69,789.14 191.31,1152.7 310.13,-149.74 396.07,-711.07 271.33,-1147.91z"/>
   <path class="fil2" d="M-753.75 4963.19c581.23,353.71 402.5,403.21 657.46,665.14 155.7,159.96 539.33,385.34 884.75,415.75 -106.94,-711.22 -748.38,-1081.96 -1542.21,-1080.89z"/>
   <path class="fil2" d="M549.47 4612.44c91.39,158.59 175.05,280.84 290.18,432.02 203.22,266.82 45.88,253.7 40.24,576.44 -5.74,328.56 238.37,861.63 406.79,1044.02 290.85,-261.34 188.71,-892.25 -11.34,-1208.72 -215.43,-340.83 -460.36,-634.34 -725.87,-843.76z"/>
   <path class="fil2" d="M983.35 9023.16c193.69,515.47 106.61,1202.34 726.76,1756.31 236.96,-271.38 119.46,-823.2 -69.09,-1066.14 -187.02,-240.97 -293.75,-209.33 -403.48,-302.81 -39.54,-33.68 -198.72,-314.83 -254.19,-387.36z"/>
   <path class="fil2" d="M806.92 8141.02c272.38,548.44 539.17,1288.49 1160.64,1563.07 35.85,-541.31 -79.04,-775.18 -386.76,-1024.9 -173.42,-140.73 -309.71,-120.16 -455.65,-213.46 -146.57,-93.69 -145.37,-262.94 -318.23,-324.71z"/>
   <path class="fil2" d="M483.36 7364.73c327.87,320.4 591.42,1057.15 1436.44,1264.47 -82.07,-978.11 -841.09,-947.19 -1043.96,-1008.66 -132.89,-40.27 -263.74,-190.74 -392.48,-255.81z"/>
   <path class="fil2" d="M97.32 6776.18c514.72,415.85 756.64,744.85 1540.19,829.74 -69.79,-328.97 -339.62,-604.28 -599.14,-713.53 -209.93,-88.38 -346.59,-43.99 -567.6,-46.01 -205.9,-1.87 -278.82,-122.61 -477.35,-174.63l103.9 104.43z"/>
   <path class="fil2" d="M-697.63 5963.88c48.11,71.11 -12.53,19.27 97.16,98.71l288.23 169.69c659.45,411.11 599.76,458.23 1439.47,458.23 -91.04,-271.19 -413.01,-539.71 -757.07,-584.21 -258.21,-33.39 -417.28,76.32 -594.78,46.58 -130.71,-21.9 -304.36,-145.22 -473.01,-189z"/>
  </g>
 </g>
</svg>